# xmcd CD database file
#
# Track frame offsets:
#	150
#	11650
#	24290
#	34803
#	48303
#	59703
#	72115
#	84303
#	95665
#	108003
#	121353
#	133053
#	144453
#	159093
#	168153
#	181423
#	191788
#	204763
#	218038
#	228685
#	240795
#	251235
#	261900
#	274548
#	285348
#	296150
#	308145
#
# Disc length: 4278 seconds
#
# Revision: 0
# Processed by: cddbd v1.5.2PL0 Copyright (c) Steve Scherf et al.
# Submitted via: CDex 1.70beta2
#
DISCID=7b10b41b
DTITLE=AAA - REMIX non-stop all singles
DYEAR=2009
DGENRE=avex
TTITLE0=BLOOD on FIRE [KISS and RIDE edit]
TTITLE1=Friday Party [KISS and RIDE edit]
TTITLE2=きれいな空 [KISS and RIDE edit]
TTITLE3=DRAGON FIRE [Sweet 80's Re-productins]
TTITLE4=ハレルヤ [Sweet 80's Re-productins]
TTITLE5=Shalala キボウの歌 [Sweet 80's Re-productins]
TTITLE6=ハリケーン・リリ、ボストン・マリ [Toshiyuki Yasuda edit]
TTITLE7=ソウルエッジボーイ [Toshiyuki Yasuda edit]
TTITLE8=キモノジェットガール [Toshiyuki Yasuda edit]
TTITLE9=Let it beat! [JAZZIDA GRANDE edit]
TTITLE10=''Q'' [JAZZIDA GRANDE edit]
TTITLE11=チューインガム [JAZZIDA GRANDE edit]
TTITLE12=Samurai heart -侍魂- [JAZZIDA GRANDE edit]
TTITLE13=Winter lander!! [JAZZIDA GRANDE edit]
TTITLE14=Get チュー！ [ALBNOTE edit]
TTITLE15=SHEの事実 [ALBNOTE edit]
TTITLE16=唇からロマンチカ [ALBNOTE edit]
TTITLE17=That's Right [TSUGE edit]
TTITLE18=SUNSHINE [TSUGE edit]
TTITLE19=No End Summer [TSUGE edit]
TTITLE20=花火 [Takaya Ito edit]
TTITLE21=Red Soul [Takaya Ito edit]
TTITLE22=MIRAGE [Funky Electro Wave]
TTITLE23=BEYOND ～ カラダノカナタ [RK edit]
TTITLE24=MUSIC!! [RK edit]
TTITLE25=ZERO [RK edit]
TTITLE26=旅ダチノウタ [RK edit]
EXTD=YEAR: 2009
EXTT0=
EXTT1=
EXTT2=
EXTT3=
EXTT4=
EXTT5=
EXTT6=
EXTT7=
EXTT8=
EXTT9=
EXTT10=
EXTT11=
EXTT12=
EXTT13=
EXTT14=
EXTT15=
EXTT16=
EXTT17=
EXTT18=
EXTT19=
EXTT20=
EXTT21=
EXTT22=
EXTT23=
EXTT24=
EXTT25=
EXTT26=
PLAYORDER=
